<svg xmlns="http://www.w3.org/2000/svg" version="1.1" xmlns:xlink="http://www.w3.org/1999/xlink" width="681" height="696"><svg xmlns="http://www.w3.org/2000/svg" version="1.1" xmlns:xlink="http://www.w3.org/1999/xlink" width="681" height="696"><svg width="681" height="696" viewBox="0 0 681 696" fill="none" xmlns="http://www.w3.org/2000/svg">
<path fill-rule="evenodd" clip-rule="evenodd" d="M301.592 2.6826C345.431 -3.5117 392.912 1.32743 435.117 14.042C436.085 14.3299 437.052 14.6174 438.049 14.914C470.683 24.7844 501.145 39.5481 529.117 59.042C529.684 59.4303 530.252 59.8186 530.836 60.2187C556.079 77.5073 580.242 98.9239 599.117 123.042C600.8 125.046 602.488 127.046 604.18 129.042C608.759 134.534 613.029 140.176 617.117 146.042L618.969 148.694C649.478 193.453 669.025 243.479 677.117 297.042C677.363 298.54 677.363 298.54 677.613 300.068C680.264 316.545 680.428 333.018 680.492 349.667C680.5 350.735 680.509 351.802 680.517 352.902C680.633 373.208 678.833 393.249 674.805 413.167C674.593 414.232 674.381 415.297 674.163 416.395C658.706 492.303 615.931 568.128 554.117 616.042C552.933 617.001 551.751 617.964 550.57 618.929C543.216 624.926 535.771 630.63 527.86 635.884C526.655 636.685 525.453 637.491 524.254 638.302C478.41 669.254 426.941 687.656 372.117 694.042C371.407 694.138 370.697 694.233 369.966 694.332C360.756 695.455 351.443 695.286 342.18 695.292C341.245 695.293 340.31 695.293 339.347 695.294C323.741 695.276 308.556 694.49 293.117 692.042L289.824 691.538C228.063 681.854 169.938 653.126 122.789 612.319C120.226 610.069 120.226 610.068 117.758 608.358L116.117 607.042V605.042L114.415 604.323C111.592 602.749 109.641 600.825 107.352 598.542L104.656 595.854L101.867 593.042L99.0314 590.229L96.3517 587.542L93.8898 585.073C92.1174 583.042 92.1173 583.042 92.1173 581.042H90.1173C88.7003 579.493 87.3592 577.874 86.0548 576.229L83.5978 573.151L81.1173 570.042C79.7012 568.354 78.2845 566.667 76.8673 564.979C18.8885 493.815 -7.32691 401.312 1.76282 310.307C8.98112 243.922 34.6091 179.736 77.1173 128.042L78.9611 125.675C93.0497 107.602 109.827 89.8491 128.117 76.042C129.387 75.0462 130.655 74.0486 131.922 73.0498C153.209 56.3751 176.006 42.3032 200.663 31.166C202.457 30.3446 204.24 29.5009 206.017 28.6445C214.441 24.625 223.016 21.4493 231.867 18.542C232.584 18.3049 233.302 18.0675 234.04 17.8232C255.369 10.7959 276.867 6.0754 299.117 3.04197L301.592 2.6826ZM378.681 33.7295C290.219 22.6389 203.978 50.9314 137.026 108.83C134.52 110.996 132.015 113.122 129.406 115.167C127.267 116.92 125.57 118.672 123.805 120.792C120.611 124.549 117.19 127.978 113.621 131.378C111.894 132.915 111.894 132.915 112.117 135.042H110.117C106.866 138.487 104.038 142.315 101.117 146.042C100.617 146.674 100.117 147.306 99.6017 147.957C48.3994 212.786 22.2276 297.918 31.3673 380.354C37.4161 429.655 53.2997 477.625 81.1173 519.042L83.1251 522.034C92.5323 535.825 102.581 548.932 113.688 561.398C115.129 563.055 116.499 564.757 117.871 566.472L120.117 569.042H122.117V571.042H124.117V573.042H126.117V575.042H128.117V577.042H130.117V579.042C131.69 580.456 133.329 581.798 134.992 583.104C138.823 586.161 142.522 589.275 146.117 592.604C151.165 597.192 156.548 601.117 162.117 605.042C163.236 605.854 164.353 606.668 165.469 607.483C173.125 613.06 180.906 618.306 189.117 623.042L191.46 624.394C258.85 662.917 339.138 676.361 414.701 656.08C437.266 649.67 459.211 641.87 479.708 630.39C482.24 628.974 484.785 627.586 487.332 626.198C499.245 619.629 510.315 612.304 521.117 604.042L523.93 601.901C529.018 597.918 533.906 593.692 538.805 589.479C539.423 588.949 540.042 588.419 540.679 587.872C544.466 584.586 548.045 581.158 551.566 577.589C553.337 575.823 555.193 574.201 557.117 572.604C561.16 569.115 564.946 565.353 568.117 561.042V559.042H570.117C598.5 529.005 619.372 489.596 633.117 451.042C633.356 450.389 633.596 449.735 633.842 449.062C650.817 402.629 654.422 350.748 647.117 302.042L646.613 298.68C638.737 248.2 619.104 198.845 588.117 158.042L585.82 154.972C583.3 151.624 580.726 148.322 578.117 145.042L576.856 143.455C569.933 134.855 562.27 126.988 554.492 119.167C553.995 118.664 553.498 118.162 552.985 117.645C551.564 116.211 550.134 114.786 548.703 113.362C547.451 112.113 547.451 112.113 546.174 110.839C544.322 108.822 544.321 108.823 542.117 109.042V107.042C540.198 105.348 538.273 103.782 536.242 102.229C535.62 101.748 534.997 101.266 534.356 100.77C521.913 91.2205 509.232 82.1729 495.801 74.0625C494.346 73.1801 492.902 72.2789 491.461 71.374C458.662 50.9842 419.292 38.5727 381.117 34.042C380.313 33.939 379.509 33.8355 378.681 33.7295ZM324.117 416.042C329.907 411.998 334.088 411.516 341.055 411.792L343.705 411.847C345.843 411.893 347.98 411.965 350.117 412.042V415.042L345.117 420.042C343.887 422.666 344.037 423.721 344.742 426.542C348.427 433.242 355.384 434.816 362.262 436.819C367.674 438.262 373.157 439.191 378.68 440.104C397.47 443.214 421.18 447.877 434.637 462.718C437.382 466.711 437.583 470.376 436.774 474.976C435.673 478.44 434.005 479.862 431.117 482.042L429.301 483.464C423.794 487.286 417.979 489.147 411.598 490.921C410.679 491.18 409.76 491.438 408.814 491.705C397.864 494.738 386.785 497.196 375.693 499.646C366.035 501.789 356.497 504.06 347.098 507.167C346.363 507.409 345.629 507.65 344.872 507.899C340.972 509.238 337.611 510.872 334.117 513.042H332.117C330.732 517.198 330.192 520.721 331.117 525.042C335.457 529.773 341.407 532.36 347.367 534.417C348.181 534.705 348.996 534.994 349.834 535.291C372.72 543.206 396.343 548.614 419.854 554.285C480.586 568.944 480.586 568.945 504.18 583.854C504.77 584.228 505.361 584.601 505.97 584.985C508.84 586.892 509.997 587.682 511.117 591.042C502.197 598.839 492.205 604.893 482.117 611.042C481.499 611.424 480.88 611.806 480.242 612.199C452.868 629.005 421.717 639.105 390.367 645.292C389.614 645.443 388.86 645.594 388.084 645.75C372.598 648.63 356.963 649.454 341.242 649.417C340.357 649.416 339.472 649.416 338.56 649.415C284.646 649.264 222.889 632.482 180.117 598.042V595.042C180.99 594.997 181.864 594.953 182.763 594.906C240.316 594.451 240.316 594.451 293.117 576.042C295.315 573.553 296.059 572.432 296.555 569.104C296.001 565.227 294.8 563.874 292.117 561.042C289.146 559.283 289.146 559.283 285.68 557.854C284.345 557.258 283.01 556.66 281.676 556.062C280.951 555.741 280.227 555.421 279.481 555.091C275.046 553.121 270.641 551.09 266.242 549.042C265.376 548.651 264.508 548.26 263.615 547.857C254.206 543.469 244.205 537.055 240.117 527.042C239.461 521.56 239.312 516.652 241.805 511.667L244.117 509.042L246.242 506.104C262.732 486.909 293.872 482.387 317.16 477.827C323.431 476.59 329.683 475.269 335.931 473.922C337.917 473.496 339.905 473.08 341.894 472.665C357.166 469.574 357.167 469.574 371.117 463.042C371.329 460.651 371.329 460.651 370.117 458.042C363.23 453.868 354.851 451.98 347.201 449.686C339.348 447.271 332.393 444.646 326.242 439.042L324 437.042C320.002 432.795 319.667 429.118 319.809 423.444C320.265 419.894 321.437 418.378 324.117 416.042ZM213.832 534.669C218.723 534.692 222.203 534.759 226.117 538.042C228.563 541.711 228.957 544.778 228.117 549.042C225.942 551.733 224.207 553.497 221.117 555.042C218.276 555.156 215.459 555.21 212.616 555.219C211.297 555.229 211.296 555.229 209.95 555.239C207.031 555.259 204.111 555.27 201.192 555.28C199.698 555.286 199.698 555.287 198.174 555.293C192.903 555.314 187.632 555.328 182.361 555.337C176.914 555.348 171.467 555.382 166.02 555.422C161.834 555.448 157.648 555.456 153.462 555.46C151.454 555.465 149.446 555.477 147.438 555.495C144.627 555.519 141.818 555.519 139.007 555.512C137.762 555.531 137.762 555.531 136.492 555.551C131.413 555.505 128.836 554.814 125.117 551.042C120.117 545.882 120.117 545.881 120.117 543.042H118.117C116.43 540.729 116.43 540.729 115.117 538.042L116.117 535.042C129.721 534.973 143.325 534.919 156.929 534.887C163.245 534.871 169.562 534.849 175.879 534.815C181.974 534.783 188.069 534.766 194.164 534.758C196.49 534.752 198.817 534.741 201.143 534.725C204.399 534.703 207.655 534.7 210.911 534.701C211.875 534.69 212.839 534.68 213.832 534.669ZM421.95 519.929C423.625 519.929 425.301 519.928 426.976 519.928C431.533 519.927 436.091 519.933 440.649 519.94C445.408 519.947 450.167 519.947 454.926 519.948C463.943 519.951 472.96 519.96 481.977 519.97C492.24 519.981 502.503 519.986 512.767 519.991C533.884 520.002 555 520.02 576.117 520.042L577.117 522.042C574.309 527.775 569.961 536.12 564.117 539.042C562.038 539.147 559.956 539.186 557.874 539.196C557.227 539.201 556.579 539.204 555.912 539.209C553.733 539.222 551.554 539.228 549.374 539.234C547.816 539.242 546.257 539.251 544.698 539.26C539.571 539.286 534.444 539.301 529.317 539.315C527.553 539.321 525.789 539.326 524.026 539.331C516.69 539.353 509.354 539.372 502.019 539.383C491.499 539.399 480.98 539.432 470.461 539.489C463.068 539.528 455.675 539.547 448.282 539.553C443.865 539.556 439.448 539.569 435.031 539.602C430.876 539.632 426.72 539.638 422.565 539.626C421.04 539.626 419.514 539.634 417.989 539.651C415.906 539.674 413.825 539.666 411.741 539.65C409.993 539.655 409.993 539.655 408.21 539.66C404.182 538.855 402.684 537.171 400.117 534.042C399.274 531.275 399.487 528.854 400.117 526.042C403.797 520.277 406.212 519.917 412.812 519.922C413.508 519.921 414.204 519.92 414.921 519.919C417.264 519.917 419.607 519.923 421.95 519.929ZM206.931 488.669C217.34 488.707 217.34 488.707 222.117 492.042C223.883 494.369 224.114 496.02 224.555 498.917C223.936 503.339 222.262 504.897 219.117 508.042C216.166 509.026 214.235 509.175 211.158 509.189C209.624 509.2 209.623 509.2 208.058 509.211C206.375 509.215 206.374 509.215 204.657 509.219C203.475 509.225 202.292 509.232 201.074 509.239C197.154 509.259 193.233 509.27 189.313 509.28C187.962 509.284 186.611 509.289 185.261 509.293C178.917 509.312 172.574 509.326 166.231 509.334C158.91 509.344 151.589 509.371 144.269 509.411C138.609 509.441 132.948 509.456 127.288 509.459C123.908 509.461 120.528 509.47 117.149 509.495C113.378 509.519 109.608 509.519 105.837 509.512C104.719 509.525 103.6 509.538 102.448 509.551C94.8858 509.5 94.8856 509.5 91.0138 507.192C88.7426 504.616 86.9716 502.011 85.2423 499.042L83.3751 495.917C82.0043 492.784 82.1336 492.137 83.1173 489.042C100.355 488.972 117.592 488.919 134.829 488.887C142.833 488.871 150.837 488.85 158.841 488.815C165.818 488.785 172.795 488.766 179.772 488.76C183.465 488.756 187.158 488.746 190.852 488.725C194.977 488.7 199.102 488.7 203.228 488.701C204.45 488.69 205.672 488.68 206.931 488.669ZM509.249 488.929C510.195 488.929 511.141 488.928 512.116 488.928C515.255 488.928 518.393 488.936 521.531 488.944C523.703 488.946 525.875 488.947 528.047 488.948C533.771 488.952 539.496 488.963 545.22 488.974C551.058 488.984 556.896 488.988 562.734 488.993C574.195 489.004 585.656 489.021 597.117 489.042C598.279 492.71 598.279 492.71 596.824 495.698L594.93 498.542L593.074 501.386C590.782 504.497 588.612 507.295 585.117 509.042C582.495 509.151 579.898 509.199 577.275 509.203C576.465 509.208 575.655 509.213 574.82 509.218C572.133 509.232 569.445 509.24 566.758 509.245C564.892 509.251 563.026 509.257 561.16 509.263C557.243 509.273 553.325 509.279 549.407 509.282C544.393 509.288 539.378 509.311 534.363 509.34C530.506 509.358 526.649 509.364 522.792 509.365C520.944 509.368 519.095 509.376 517.247 509.39C514.657 509.407 512.068 509.405 509.478 509.398C508.337 509.412 508.336 509.413 507.172 509.427C502.414 509.389 499.134 508.612 495.117 506.042C492.671 502.373 492.278 499.306 493.117 495.042C498.078 488.906 501.761 488.899 509.249 488.929ZM263.107 451.654C267.618 451.691 270.541 452.229 274.117 455.042C275.861 457.974 276.132 459.691 275.992 463.104C274.989 466.474 273.812 467.837 271.117 470.042C268.047 471.577 264.817 471.22 261.445 471.243C260.244 471.257 260.243 471.257 259.017 471.271C256.317 471.301 253.617 471.323 250.917 471.346C248.987 471.365 247.058 471.385 245.128 471.405C227.506 471.579 209.882 471.672 192.259 471.746C179.228 471.802 166.198 471.897 153.167 472.042C144.01 472.14 134.852 472.193 125.694 472.212C120.222 472.225 114.752 472.258 109.28 472.342C104.131 472.419 98.984 472.44 93.8341 472.418C91.9455 472.42 90.0562 472.442 88.1681 472.486C73.9898 472.803 73.9892 472.802 69.4396 468.524C66.1196 463.16 64.8238 458.289 64.1173 452.042C90.7595 451.972 117.402 451.919 144.044 451.887C156.414 451.871 168.784 451.85 181.154 451.815C191.935 451.786 202.715 451.766 213.495 451.76C219.205 451.756 224.914 451.746 230.623 451.725C235.995 451.704 241.367 451.699 246.739 451.703C248.713 451.702 250.686 451.696 252.659 451.685C255.351 451.67 258.042 451.673 260.734 451.682C261.517 451.673 262.3 451.663 263.107 451.654ZM482.157 451.814C483.616 451.815 485.075 451.816 486.533 451.814C490.492 451.814 494.45 451.825 498.408 451.839C502.546 451.851 506.683 451.853 510.82 451.855C518.654 451.862 526.489 451.877 534.322 451.897C543.241 451.92 552.16 451.931 561.079 451.941C579.425 451.962 597.771 451.997 616.117 452.042C616.26 457.041 615.534 459.906 613.18 464.354L611.527 467.53C610.117 470.042 610.117 470.042 609.117 471.042C607.294 471.147 605.466 471.182 603.64 471.189C601.857 471.2 601.856 471.2 600.037 471.211C598.721 471.214 597.404 471.216 596.048 471.219C594.657 471.225 593.266 471.232 591.875 471.239C588.086 471.257 584.296 471.267 580.507 471.275C578.141 471.281 575.774 471.287 573.407 471.293C566.006 471.312 558.605 471.326 551.204 471.334C542.656 471.344 534.107 471.371 525.559 471.411C518.956 471.441 512.353 471.456 505.75 471.459C501.805 471.461 497.859 471.47 493.913 471.495C490.2 471.518 486.487 471.523 482.774 471.513C480.762 471.512 478.751 471.531 476.74 471.551C475.54 471.544 474.339 471.536 473.103 471.529C472.061 471.532 471.02 471.535 469.947 471.537C466.383 470.914 464.7 469.525 462.117 467.042C460.547 463.244 460.755 459.918 462.305 456.167C465.782 452.09 468.999 451.793 474.217 451.802C475.468 451.799 476.718 451.796 478.007 451.793C479.39 451.8 480.774 451.807 482.157 451.814ZM435.117 64.042C457.455 68.7841 479.548 79.7643 497.522 93.7988C499.169 95.0819 500.838 96.3325 502.512 97.581C509.183 102.62 515.442 108.027 521.555 113.729C522.205 114.335 522.856 114.941 523.526 115.564C528.017 119.822 532.116 124.324 536.117 129.042C536.626 129.634 537.134 130.225 537.658 130.835C564.045 161.741 582.175 197.38 591.867 236.792C592.166 237.996 592.166 237.996 592.471 239.225C595.927 253.971 596.463 268.416 596.433 283.492C596.43 286.772 596.453 290.051 596.479 293.331C596.518 306.188 595.693 318.439 593.117 331.042C592.904 332.111 592.69 333.179 592.47 334.28C586.843 360.308 575.908 384.694 559.149 405.405C557.466 407.59 556.215 409.53 555.117 412.042L558.152 411.202C559.495 410.836 560.837 410.47 562.18 410.104L564.17 409.552C571.318 407.615 578.169 406.892 585.555 406.979L587.772 406.993C589.554 407.005 591.335 407.023 593.117 407.042L593.531 404.269C595.453 393.689 603.815 384.763 612.34 378.601C620.381 373.397 628.412 369.765 638.117 370.042C638.381 376.773 637.409 382.895 636.055 389.479C635.836 390.557 635.617 391.635 635.392 392.746C633.699 400.818 631.699 408.784 629.492 416.729C629.059 418.296 629.059 418.296 628.617 419.894C627.175 424.929 625.497 429.362 623.117 434.042C594.693 434.202 566.268 434.326 537.843 434.399C534.471 434.408 531.098 434.417 527.726 434.427C527.055 434.429 526.383 434.43 525.692 434.432C514.889 434.462 504.087 434.517 493.285 434.582C482.162 434.648 471.039 434.686 459.916 434.7C453.685 434.709 447.454 434.731 441.223 434.782C379.464 435.273 379.464 435.273 364.117 425.042C364.6 420.732 365.719 419.018 369.055 416.292L371.207 414.495C374.769 411.786 377.085 411.936 381.532 411.979C382.899 411.989 384.265 411.998 385.632 412.007C386.722 412.016 386.722 412.017 387.834 412.026C391.704 412.053 395.574 412.043 399.443 412.038C404.359 412.032 409.273 412.036 414.189 412.093C418.166 412.138 422.142 412.138 426.119 412.109C427.622 412.106 429.126 412.119 430.629 412.148C442.702 412.373 450.421 409.135 460.117 402.042C460.75 401.58 461.382 401.118 462.033 400.642C501.023 371.914 529.039 330.157 537.117 282.042C544.428 227.393 530.443 171.2 497.617 126.667C496.129 124.783 494.628 122.908 493.117 121.042C492.18 119.83 491.244 118.616 490.309 117.401C474.618 97.2627 456.102 80.0997 434.117 67.042L435.117 64.042ZM246.117 64.042C246.02 65.7763 246.02 65.7764 245.117 68.042C242.99 69.6161 240.949 70.9577 238.68 72.292C219.74 83.9505 202.57 100.341 189.117 118.042L187.617 120.015C179.884 130.258 173.063 140.672 167.117 152.042C166.779 152.672 166.44 153.303 166.092 153.952C145.545 192.285 135.766 239.916 144.117 283.042C144.273 283.863 144.429 284.684 144.59 285.529C149.58 311.037 158.938 333.933 174.117 355.042L175.329 356.75C190.948 378.51 212.974 398.97 237.117 411.042C239.45 411.158 241.786 411.209 244.121 411.231C244.842 411.24 245.563 411.248 246.305 411.257C247.871 411.274 249.437 411.289 251.003 411.303C253.478 411.324 255.952 411.35 258.427 411.379C264.572 411.449 270.717 411.509 276.861 411.568C282.054 411.619 287.246 411.673 292.439 411.733C294.883 411.76 297.328 411.781 299.773 411.802C301.262 411.818 302.753 411.835 304.242 411.853C305.549 411.865 306.855 411.878 308.201 411.891C311.117 412.042 311.117 412.042 312.117 413.042C311.915 415.169 311.703 417.296 311.438 419.417C311.009 422.929 310.707 426.451 310.399 429.976C310.117 432.042 310.117 432.042 309.117 434.042C277.065 434.156 245.013 434.244 212.961 434.297C209.18 434.303 205.398 434.31 201.616 434.316C200.864 434.318 200.111 434.319 199.335 434.32C187.135 434.342 174.934 434.382 162.734 434.428C150.221 434.474 137.709 434.503 125.196 434.513C117.471 434.52 109.746 434.541 102.021 434.582C96.1037 434.611 90.1867 434.614 84.2697 434.607C81.8377 434.609 79.4057 434.619 76.9738 434.638C73.6638 434.662 70.3551 434.657 67.0451 434.644C66.0734 434.658 65.1018 434.672 64.1007 434.687C61.6685 434.66 59.4839 434.602 57.1173 434.042C55.0553 431.665 55.0553 431.665 54.1173 429.042C53.8086 428.192 53.4999 427.341 53.1818 426.465C52.9233 425.558 52.6648 424.652 52.3986 423.718C51.9619 422.188 51.9622 422.188 51.5167 420.628C51.2201 419.548 50.923 418.467 50.6173 417.354C50.1549 415.679 50.1554 415.679 49.6837 413.97C45.7546 399.39 43.7127 385.111 43.1173 370.042C55.1762 369.671 65.7756 375.28 74.5978 383.296C80.7267 389.692 87.1173 397.877 87.1173 407.042L89.8361 406.936C102.391 406.664 114.002 408.761 126.117 412.042L124.281 409.796C106.758 387.942 95.5482 362.609 88.8673 335.542C88.621 334.558 88.3751 333.575 88.1212 332.561C84.5825 317.595 83.7327 302.674 83.8048 287.354C83.807 286.525 83.8094 285.695 83.8117 284.84C84.0301 232.259 103.376 181.082 136.117 140.042L138.375 137.144C160.746 108.994 206.657 64.042 246.117 64.042ZM339.117 156.042C342.129 157.364 343.923 158.676 345.965 161.245C346.482 161.889 347 162.532 347.532 163.195C348.076 163.887 348.62 164.579 349.18 165.292C349.752 166.008 350.325 166.723 350.914 167.461C355.007 172.593 359.046 177.769 363.081 182.947C367.083 188.058 371.271 192.995 375.512 197.909C376.14 198.683 376.14 198.684 376.78 199.474C378.088 201.076 378.088 201.076 379.664 202.439C385.257 208.202 384.845 214.912 384.797 222.45C384.766 224.22 384.735 225.991 384.703 227.761C384.692 229.588 384.684 231.415 384.678 233.242C384.655 238.03 384.596 242.816 384.529 247.604C384.468 252.497 384.44 257.39 384.41 262.284C384.346 271.871 384.244 281.456 384.117 291.042C384.804 291.037 385.49 291.032 386.197 291.026C389.296 291.006 392.394 290.992 395.492 290.979L398.766 290.954L401.891 290.944C402.844 290.939 403.797 290.934 404.779 290.929C407.117 291.042 407.117 291.042 409.117 292.042V398.042C406.755 399.223 405.333 399.168 402.699 399.171C401.785 399.174 400.871 399.177 399.929 399.181C398.444 399.178 398.444 399.178 396.93 399.175C395.41 399.176 395.409 399.176 393.859 399.178C391.713 399.178 389.568 399.176 387.423 399.172C384.131 399.167 380.839 399.172 377.547 399.179C375.466 399.178 373.385 399.177 371.305 399.175C370.315 399.177 369.325 399.179 368.306 399.181C367.392 399.177 366.477 399.174 365.535 399.171C364.729 399.17 363.922 399.17 363.091 399.169C361.118 399.042 361.117 399.042 359.117 398.042C359.109 397.321 359.101 396.599 359.093 395.855C359.015 389.03 358.928 382.204 358.83 375.379C358.78 371.87 358.734 368.361 358.695 364.853C358.651 360.811 358.592 356.77 358.531 352.729C358.52 351.48 358.508 350.23 358.496 348.943C358.361 336.759 358.361 336.758 353.117 326.042C348.044 322.389 343.41 320.782 337.117 321.042C332.647 321.877 329.301 323.456 326.242 326.854C322.862 331.924 321.873 336.37 321.799 342.414C321.779 343.655 321.759 344.896 321.738 346.175C321.727 347.513 321.715 348.852 321.703 350.19C321.685 351.572 321.665 352.953 321.645 354.335C321.594 357.955 321.554 361.574 321.517 365.194C321.477 368.895 321.425 372.596 321.375 376.296C321.279 383.544 321.194 390.793 321.117 398.042C317.866 398.765 314.855 399.167 311.526 399.171C310.649 399.174 309.772 399.177 308.868 399.181C307.935 399.179 307.001 399.177 306.039 399.175C305.072 399.176 304.105 399.177 303.109 399.178C301.071 399.178 299.034 399.176 296.996 399.172C293.865 399.166 290.733 399.172 287.602 399.179C285.623 399.178 283.643 399.177 281.664 399.175C280.252 399.178 280.252 399.178 278.811 399.181C277.514 399.176 277.514 399.176 276.191 399.171C275.426 399.17 274.662 399.17 273.874 399.169C272.117 399.042 272.117 399.042 271.117 398.042C270.989 396.487 270.929 394.926 270.897 393.366C270.873 392.358 270.85 391.35 270.826 390.311C270.806 389.2 270.786 388.089 270.766 386.944C270.742 385.787 270.719 384.63 270.694 383.437C270.62 379.618 270.555 375.799 270.492 371.979C270.47 370.686 270.446 369.393 270.423 368.061C269.99 342.704 270.334 317.39 271.117 292.042C274.468 291.288 277.548 290.922 280.981 290.944L283.666 290.954L286.43 290.979L289.252 290.993C291.541 291.005 293.829 291.021 296.117 291.042C296.095 290.041 296.073 289.041 296.05 288.01C295.846 278.537 295.698 269.064 295.6 259.589C295.548 254.719 295.477 249.85 295.363 244.981C295.254 240.274 295.195 235.568 295.169 230.859C295.151 229.072 295.114 227.284 295.06 225.497C294.794 216.389 294.683 209.232 300.952 202.137C302.652 200.417 304.372 198.716 306.117 197.042C307.354 195.523 308.569 193.985 309.742 192.417C316.361 183.819 323.236 175.43 330.117 167.042L339.117 156.042ZM216.117 306.042L216.805 309.229C217.993 313.98 221.298 316.254 225.117 319.042C223.828 320.418 222.49 321.75 221.117 323.042H219.117L216.117 333.042H213.117L212.672 330.925C211.991 328.163 211.29 325.636 210.117 323.042C207.1 321.281 207.1 321.281 204.117 321.042C205.218 318.239 206.065 317.079 208.555 315.292C212.052 312.221 212.723 309.445 214.117 305.042L216.117 306.042ZM465.117 244.042L465.414 246.456C466.584 254.927 466.584 254.927 471.117 262.042C474.79 264.722 478.932 266.319 483.117 268.042C481.478 271.321 478.003 271.618 474.66 272.749C470.936 274.643 468.86 276.977 467.433 280.946C466.84 283.072 466.337 285.199 465.867 287.354L465.344 289.599C464.923 291.41 464.519 293.226 464.117 295.042L461.117 294.042C460.379 291.128 460.379 291.128 459.805 287.417C458.585 281.266 457.424 276.716 452.117 273.042C449.176 271.715 446.257 270.775 443.117 270.042V267.042L445.129 266.378C451.159 264.213 454.637 262.48 458.117 257.042C460.107 252.466 460.608 247.963 461.117 243.042L465.117 244.042ZM346.117 214.042C340.702 211.698 335.999 212.572 332.117 217.042C329.463 221.85 329.846 226.782 329.887 232.12C329.887 233.087 329.888 234.054 329.889 235.051C329.892 237.088 329.899 239.126 329.911 241.163C329.93 244.295 329.932 247.426 329.932 250.558C329.937 252.537 329.943 254.516 329.949 256.495C329.95 257.437 329.952 258.378 329.953 259.349C329.96 260.213 329.965 261.078 329.972 261.969C329.976 262.733 329.98 263.498 329.984 264.285C329.927 266.069 329.928 266.069 331.117 267.042C332.533 267.128 333.953 267.149 335.371 267.14L337.959 267.13L340.68 267.104L343.412 267.091C345.647 267.079 347.882 267.062 350.117 267.042C350.219 260.458 350.289 253.875 350.337 247.291C350.357 245.052 350.384 242.814 350.419 240.575C350.468 237.353 350.49 234.132 350.508 230.909C350.529 229.912 350.549 228.915 350.57 227.888C350.572 221.963 350.105 218.535 346.117 214.042ZM227.598 186.226C229.155 195.861 230.863 203.59 237.805 210.854C244.089 215.005 250.623 217.39 258.117 218.042V222.042L255.117 222.706C246.756 224.666 239.149 226.458 233.859 233.784C230.703 239.419 229.559 245.806 228.117 252.042C227.483 254.387 226.806 256.713 226.117 259.042H224.117L223.602 255.858C221.868 243.149 221.868 243.149 215.492 232.437C214.117 231.042 214.117 231.042 214.117 229.042C207.207 225.417 199.64 223.048 192.117 221.042L193.117 218.042L195.242 217.745C204.041 216.358 211.136 214.373 216.805 207.147C221.342 199.869 222.887 191.41 224.117 183.042H227.117L227.598 186.226ZM440.117 139.042L440.231 141.132C440.926 151.072 442.504 159.13 450.117 166.042C455.757 170.134 461.279 171.102 468.117 172.042V176.042L465.484 176.558C457.694 178.196 452.725 179.54 446.992 185.104C442.291 192.47 440.492 200.396 440.117 209.042H436.117L435.637 205.823C434.342 197.784 433.056 191.715 428.117 185.042V183.042C421.788 179.79 415.252 176.793 408.117 176.042L407.117 173.042L409.992 172.292C411.37 171.885 412.745 171.467 414.117 171.042L416.563 170.3C424.577 167.53 428.782 163.149 432.93 155.854C434.382 151.191 435.06 146.574 435.688 141.737C436.117 139.042 436.117 139.042 437.117 138.042L440.117 139.042ZM342.117 44.042C342.556 45.8327 342.556 45.8327 342.828 48.1631C342.936 49.0115 343.044 49.8602 343.155 50.7344C343.322 52.0931 343.322 52.0931 343.492 53.4795C345.199 65.8163 348.097 76.1167 357.891 84.5732C365.711 89.9844 375.75 92.3073 385.117 93.042V96.042L383.352 96.3388C373.964 98.051 364.857 100.287 357.117 106.042L354.117 107.042C353.065 108.795 353.065 108.795 352.117 111.042L350.496 113.827C345.063 123.63 343.357 132.968 342.117 144.042H339.117L338.637 140.999C336.324 127.103 333.32 114.558 322.117 105.042C313.846 99.6876 304.662 97.8472 295.117 96.042V93.042L298.195 92.5967C309.835 90.7643 321.036 88.0471 328.656 78.3076C335.083 68.3415 336.895 57.9523 338.652 46.4482C339.117 44.042 339.117 44.0419 340.117 43.042L342.117 44.042ZM257.367 125.354C259.93 128.003 259.93 128.003 262.43 129.667L264.117 131.042C264.117 134.042 264.117 134.042 261.867 136.542C259.682 138.529 257.529 140.345 255.117 142.042L253.91 140.581L252.305 138.667L250.723 136.769C249.035 134.82 249.035 134.82 246.117 133.042C247.268 129.589 248.438 128.661 251.18 126.354L253.402 124.468L255.117 123.042L257.367 125.354Z" fill="black"></path>
</svg></svg><style>@media (prefers-color-scheme: light) { :root { filter: none; } }
@media (prefers-color-scheme: dark) { :root { filter: invert(100%); } }
</style></svg>